<?xml version="1.0" encoding="iso-8859-1"?>
<!-- Uploaded to: SVG Repo, www.svgrepo.com, Generator: SVG Repo Mixer Tools -->
<svg fill="#000000" height="800px" width="800px" version="1.1" id="Layer_1" xmlns="http://www.w3.org/2000/svg" xmlns:xlink="http://www.w3.org/1999/xlink" 
	 viewBox="0 0 480 480" xml:space="preserve">
<g>
	<g>
		<g>
			<path d="M424,104.668H296c-4.424,0-8,3.584-8,8s3.576,8,8,8h128c4.424,0,8-3.584,8-8S428.424,104.668,424,104.668z"/>
			<path d="M424,56.668H216c-4.416,0-8,3.584-8,8s3.584,8,8,8h208c4.424,0,8-3.584,8-8S428.424,56.668,424,56.668z"/>
			<path d="M432,160.668c0-4.416-3.576-8-8-8H216c-4.416,0-8,3.584-8,8s3.584,8,8,8h208C428.424,168.668,432,165.084,432,160.668z"
				/>
			<path d="M456,0.668H24c-13.232,0-24,10.768-24,24v336c0,13.232,10.768,24,24,24h288c4.424,0,8-3.584,8-8c0-4.416-3.576-8-8-8H24
				c-4.408,0-8-3.592-8-8v-336c0-4.408,3.592-8,8-8h432c4.416,0,8,3.592,8,8v192c0,4.416,3.576,8,8,8s8-3.584,8-8v-192
				C480,11.436,469.232,0.668,456,0.668z"/>
			<path d="M391.76,198.372c-48.392,0-87.76,39.336-87.76,87.68c0,27.232,12.472,51.608,32,67.72v117.56
				c0,2.952,1.624,5.664,4.224,7.056c2.592,1.392,5.76,1.232,8.208-0.4L392,448.948l43.56,29.04c1.336,0.896,2.88,1.344,4.44,1.344
				c1.296,0,2.592-0.312,3.776-0.944c2.6-1.392,4.224-4.104,4.224-7.056V353.34c19.248-16.112,31.52-40.288,31.52-67.288
				C479.52,237.708,440.152,198.372,391.76,198.372z M432,456.388l-35.56-23.704c-2.688-1.792-6.184-1.792-8.872,0L352,456.388
				v-92.2c9.768,4.992,20.56,8.224,32,9.232v27.248c0,4.416,3.576,8,8,8s8-3.584,8-8v-27.272c11.448-1.072,22.248-4.384,32-9.44
				V456.388z M391.76,357.82c-39.568,0-71.76-32.192-71.76-71.76c0-39.52,32.184-71.68,71.76-71.68
				c39.576,0,71.768,32.16,71.768,71.68C463.52,325.628,431.328,357.82,391.76,357.82z"/>
			<path d="M391.736,241.004c-4.424,0-8,3.584-8,8c0,4.416,3.576,8,8,8c16.04,0,29.096,13.048,29.096,29.088
				c0,16.04-13.056,29.088-29.096,29.088c-4.424,0-8,3.584-8,8c0,4.416,3.576,8,8,8c24.864,0,45.096-20.224,45.096-45.088
				C436.832,261.236,416.6,241.004,391.736,241.004z"/>
			<path d="M135.688,282.436c-0.944-2.896-3.448-5.008-6.464-5.448l-26.72-3.872l-11.976-24.232
				c-1.344-2.728-4.128-4.456-7.168-4.456h-0.008c-3.048,0-5.832,1.736-7.168,4.472l-11.896,24.216l-26.72,3.872
				c-3.008,0.44-5.52,2.544-6.464,5.448c-0.944,2.896-0.16,6.072,2.024,8.2l19.312,18.832l-4.56,26.568
				c-0.512,3,0.712,6.032,3.176,7.824c1.392,1.016,3.048,1.528,4.704,1.528c1.272,0,2.544-0.304,3.72-0.912l23.88-12.536
				l23.968,12.536c2.68,1.408,5.96,1.176,8.416-0.624c2.456-1.792,3.688-4.824,3.168-7.824l-4.56-26.576l19.304-18.824
				C135.84,288.508,136.632,285.332,135.688,282.436z M100.176,300.94c-1.88,1.832-2.744,4.488-2.296,7.08l2.536,14.776
				l-13.352-6.984c-1.16-0.608-2.432-0.912-3.704-0.912c-1.28,0-2.552,0.304-3.72,0.912l-13.248,6.96l2.528-14.752
				c0.448-2.6-0.416-5.248-2.296-7.08l-10.712-10.448l14.832-2.152c2.608-0.376,4.864-2.024,6.032-4.392l6.6-13.432l6.648,13.448
				c1.168,2.36,3.416,4,6.024,4.376l14.832,2.152L100.176,300.94z"/>
			<path d="M263.688,282.436c-0.944-2.896-3.448-5.008-6.464-5.448l-26.72-3.872l-11.976-24.232
				c-1.344-2.728-4.128-4.456-7.168-4.456h-0.008c-3.048,0-5.832,1.736-7.168,4.472l-11.896,24.216l-26.712,3.872
				c-3.008,0.44-5.52,2.544-6.464,5.448c-0.944,2.896-0.16,6.072,2.024,8.2l19.312,18.832l-4.56,26.568
				c-0.512,3,0.712,6.032,3.176,7.824c1.392,1.016,3.048,1.528,4.704,1.528c1.272,0,2.544-0.304,3.72-0.912l23.88-12.536
				l23.968,12.536c2.688,1.408,5.96,1.176,8.416-0.624c2.456-1.792,3.688-4.824,3.168-7.824l-4.56-26.576l19.304-18.824
				C263.84,288.508,264.624,285.332,263.688,282.436z M228.176,300.94c-1.88,1.832-2.744,4.488-2.296,7.08l2.536,14.776
				l-13.352-6.984c-1.16-0.608-2.432-0.912-3.704-0.912c-1.28,0-2.552,0.304-3.72,0.912l-13.248,6.96l2.528-14.752
				c0.448-2.6-0.416-5.248-2.296-7.08l-10.712-10.448l14.832-2.152c2.608-0.376,4.864-2.024,6.032-4.392l6.6-13.432l6.648,13.448
				c1.168,2.36,3.416,4,6.024,4.376l14.832,2.152L228.176,300.94z"/>
			<path d="M56,72.668h128c4.416,0,8-3.584,8-8s-3.584-8-8-8H56c-4.416,0-8,3.584-8,8S51.584,72.668,56,72.668z"/>
			<path d="M56,120.668h208c4.424,0,8-3.584,8-8s-3.576-8-8-8H56c-4.416,0-8,3.584-8,8S51.584,120.668,56,120.668z"/>
			<path d="M56,168.668h128c4.416,0,8-3.584,8-8s-3.584-8-8-8H56c-4.416,0-8,3.584-8,8S51.584,168.668,56,168.668z"/>
			<path d="M272,208.668c0-4.416-3.576-8-8-8H56c-4.416,0-8,3.584-8,8s3.584,8,8,8h208C268.424,216.668,272,213.084,272,208.668z"/>
		</g>
	</g>
</g>
</svg>